<?xml version="1.0" encoding="UTF-8" standalone="no"?>
<svg
   xmlns:dc="http://purl.org/dc/elements/1.1/"
   xmlns:cc="http://creativecommons.org/ns#"
   xmlns:rdf="http://www.w3.org/1999/02/22-rdf-syntax-ns#"
   xmlns:svg="http://www.w3.org/2000/svg"
   xmlns="http://www.w3.org/2000/svg"
   xmlns:sodipodi="http://sodipodi.sourceforge.net/DTD/sodipodi-0.dtd"
   xmlns:inkscape="http://www.inkscape.org/namespaces/inkscape"
   version="1.1"
   viewBox="0 0 327 267"
   stroke-miterlimit="10"
   id="svg3992"
   sodipodi:docname="example-binding-expression.svg"
   width="327"
   height="267"
   style="fill:none;stroke:none;stroke-linecap:square;stroke-miterlimit:10"
   inkscape:version="0.92.4 (33fec40, 2019-01-16)">
  <metadata
     id="metadata3998">
    <rdf:RDF>
      <cc:Work
         rdf:about="">
        <dc:format>image/svg+xml</dc:format>
        <dc:type
           rdf:resource="http://purl.org/dc/dcmitype/StillImage" />
        <dc:title></dc:title>
      </cc:Work>
    </rdf:RDF>
  </metadata>
  <defs
     id="defs3996" />
  <sodipodi:namedview
     pagecolor="#ffffff"
     bordercolor="#666666"
     borderopacity="1"
     objecttolerance="10"
     gridtolerance="10"
     guidetolerance="10"
     inkscape:pageopacity="0"
     inkscape:pageshadow="2"
     inkscape:window-width="1319"
     inkscape:window-height="900"
     id="namedview3994"
     showgrid="false"
     inkscape:zoom="0.975"
     inkscape:cx="400"
     inkscape:cy="300"
     inkscape:window-x="2271"
     inkscape:window-y="157"
     inkscape:window-maximized="0"
     inkscape:current-layer="svg3992" />
  <clipPath
     id="p.0">
    <path
       d="M 0,0 H 800 V 600 H 0 Z"
       id="path3885"
       inkscape:connector-curvature="0"
       style="clip-rule:nonzero" />
  </clipPath>
  <g
     clip-path="url(#p.0)"
     id="g3990"
     transform="matrix(0.86794872,0,0,0.86794872,-129.23078,-95.820518)">
    <path
       d="M 0,0 H 800 V 600 H 0 Z"
       id="path3888"
       inkscape:connector-curvature="0"
       style="fill:#000000;fill-opacity:0;fill-rule:evenodd" />
    <path
       d="m 157.8176,325.4108 v 0 -137.00134 h 351.3701 v 137.00134 0 l -175.68503,21.14038 z"
       id="path3890"
       inkscape:connector-curvature="0"
       style="fill:#efefef;fill-rule:evenodd" />
    <path
       d="m 157.8176,325.4108 v 0 -137.00134 h 351.3701 v 137.00134 0 l -175.68503,21.14038 z"
       id="path3892"
       inkscape:connector-curvature="0"
       style="fill-rule:evenodd;stroke:#000000;stroke-width:1;stroke-linecap:butt;stroke-linejoin:round" />
    <path
       d="m 224.73228,118.35433 h 66.89763 v 49.38583 h -66.89763 z"
       id="path3894"
       inkscape:connector-curvature="0"
       style="fill:#cfe2f3;fill-rule:evenodd" />
    <path
       d="m 224.73228,118.35433 h 66.89763 v 49.38583 h -66.89763 z"
       id="path3896"
       inkscape:connector-curvature="0"
       style="fill-rule:evenodd;stroke:#000000;stroke-width:1;stroke-linecap:butt;stroke-linejoin:round" />
    <path
       d="m 247.51195,140.80037 h 3.59375 v 6 h 2.29688 v 1.04687 h -5.89063 v -1.04687 h 2.39063 v -4.95313 h -2.39063 z m 2.23438,-1.84375 q 0,-0.29688 0.17187,-0.5 0.1875,-0.20313 0.54688,-0.20313 0.35937,0 0.53125,0.20313 0.1875,0.20312 0.1875,0.5 0,0.29687 -0.1875,0.5 -0.17188,0.1875 -0.53125,0.1875 -0.35938,0 -0.54688,-0.1875 -0.17187,-0.20313 -0.17187,-0.5 z m 6.96693,3.57812 h 0.85937 q 0.46875,0 0.8125,-0.125 0.34375,-0.125 0.57813,-0.34375 0.25,-0.21875 0.35937,-0.51562 0.125,-0.29688 0.125,-0.65625 0,-0.82813 -0.42187,-1.23438 -0.42188,-0.42187 -1.23438,-0.42187 -0.375,0 -0.70312,0.10937 -0.3125,0.10938 -0.54688,0.32813 -0.21875,0.21875 -0.34375,0.51562 -0.10937,0.29688 -0.10937,0.67188 h -1.21875 q 0,-0.54688 0.20312,-1.01563 0.21875,-0.48437 0.59375,-0.84375 0.39063,-0.35937 0.92188,-0.5625 0.54687,-0.20312 1.20312,-0.20312 0.64063,0 1.15625,0.17187 0.53125,0.17188 0.90625,0.51563 0.39063,0.34375 0.59375,0.84375 0.20313,0.5 0.20313,1.15625 0,0.26562 -0.0781,0.5625 -0.0781,0.29687 -0.26562,0.57812 -0.17188,0.26563 -0.45313,0.51563 -0.26562,0.23437 -0.65625,0.40625 0.46875,0.14062 0.76563,0.39062 0.3125,0.23438 0.5,0.54688 0.1875,0.29687 0.26562,0.625 0.0781,0.32812 0.0781,0.65625 0,0.65625 -0.23438,1.17187 -0.23437,0.51563 -0.64062,0.875 -0.39063,0.35938 -0.95313,0.54688 -0.54687,0.17187 -1.17187,0.17187 -0.625,0 -1.1875,-0.17187 -0.54688,-0.17188 -0.95313,-0.5 -0.39062,-0.34375 -0.64062,-0.82813 -0.23438,-0.5 -0.23438,-1.125 h 1.20313 q 0,0.375 0.125,0.6875 0.125,0.29688 0.35937,0.51563 0.23438,0.20312 0.5625,0.32812 0.34375,0.10938 0.76563,0.10938 0.40625,0 0.73437,-0.0937 0.32813,-0.10938 0.5625,-0.32813 0.23438,-0.23437 0.35938,-0.5625 0.14062,-0.32812 0.14062,-0.76562 0,-0.45313 -0.15625,-0.76563 -0.14062,-0.32812 -0.40625,-0.53125 -0.26562,-0.21875 -0.64062,-0.32812 -0.375,-0.10938 -0.82813,-0.10938 h -0.85937 z m 12.40445,5.3125 h -6.20313 v -0.85937 l 3.10938,-3.45313 q 0.40625,-0.46875 0.6875,-0.82812 0.28125,-0.35938 0.45312,-0.65625 0.17188,-0.29688 0.23438,-0.5625 0.0781,-0.28125 0.0781,-0.5625 0,-0.35938 -0.125,-0.65625 -0.10937,-0.3125 -0.32812,-0.53125 -0.20313,-0.23438 -0.51563,-0.35938 -0.3125,-0.14062 -0.70312,-0.14062 -0.46875,0 -0.82813,0.14062 -0.34375,0.125 -0.57812,0.375 -0.23438,0.25 -0.34375,0.60938 -0.10938,0.35937 -0.10938,0.79687 h -1.21875 q 0,-0.59375 0.20313,-1.125 0.21875,-0.53125 0.60937,-0.92187 0.39063,-0.40625 0.95313,-0.64063 0.57812,-0.23437 1.3125,-0.23437 0.67187,0 1.20312,0.20312 0.54688,0.20313 0.90625,0.5625 0.375,0.34375 0.57813,0.82813 0.20312,0.46875 0.20312,1.04687 0,0.42188 -0.15625,0.82813 -0.14062,0.40625 -0.39062,0.8125 -0.23438,0.40625 -0.5625,0.8125 -0.3125,0.39062 -0.67188,0.78125 l -2.54687,2.75 h 4.75 z"
       id="path3898"
       inkscape:connector-curvature="0"
       style="fill:#000000;fill-rule:nonzero" />
    <path
       d="m 291.6299,118.35433 h 66.89764 v 49.38583 H 291.6299 Z"
       id="path3900"
       inkscape:connector-curvature="0"
       style="fill:#cfe2f3;fill-rule:evenodd" />
    <path
       d="m 291.6299,118.35433 h 66.89764 v 49.38583 H 291.6299 Z"
       id="path3902"
       inkscape:connector-curvature="0"
       style="fill-rule:evenodd;stroke:#000000;stroke-width:1;stroke-linecap:butt;stroke-linejoin:round" />
    <path
       d="m 314.40958,140.80037 h 3.59375 v 6 h 2.29687 v 1.04687 h -5.89062 v -1.04687 h 2.39062 v -4.95313 h -2.39062 z m 2.23437,-1.84375 q 0,-0.29688 0.17188,-0.5 0.1875,-0.20313 0.54687,-0.20313 0.35938,0 0.53125,0.20313 0.1875,0.20312 0.1875,0.5 0,0.29687 -0.1875,0.5 -0.17187,0.1875 -0.53125,0.1875 -0.35937,0 -0.54687,-0.1875 -0.17188,-0.20313 -0.17188,-0.5 z m 6.96695,3.57812 h 0.85938 q 0.46875,0 0.8125,-0.125 0.34375,-0.125 0.57812,-0.34375 0.25,-0.21875 0.35938,-0.51562 0.125,-0.29688 0.125,-0.65625 0,-0.82813 -0.42188,-1.23438 -0.42187,-0.42187 -1.23437,-0.42187 -0.375,0 -0.70313,0.10937 -0.3125,0.10938 -0.54687,0.32813 -0.21875,0.21875 -0.34375,0.51562 -0.10938,0.29688 -0.10938,0.67188 h -1.21875 q 0,-0.54688 0.20313,-1.01563 0.21875,-0.48437 0.59375,-0.84375 0.39062,-0.35937 0.92187,-0.5625 0.54688,-0.20312 1.20313,-0.20312 0.64062,0 1.15625,0.17187 0.53125,0.17188 0.90625,0.51563 0.39062,0.34375 0.59375,0.84375 0.20312,0.5 0.20312,1.15625 0,0.26562 -0.0781,0.5625 -0.0781,0.29687 -0.26563,0.57812 -0.17187,0.26563 -0.45312,0.51563 -0.26563,0.23437 -0.65625,0.40625 0.46875,0.14062 0.76562,0.39062 0.3125,0.23438 0.5,0.54688 0.1875,0.29687 0.26563,0.625 0.0781,0.32812 0.0781,0.65625 0,0.65625 -0.23437,1.17187 -0.23438,0.51563 -0.64063,0.875 -0.39062,0.35938 -0.95312,0.54688 -0.54688,0.17187 -1.17188,0.17187 -0.625,0 -1.1875,-0.17187 -0.54687,-0.17188 -0.95312,-0.5 -0.39063,-0.34375 -0.64063,-0.82813 -0.23437,-0.5 -0.23437,-1.125 h 1.20312 q 0,0.375 0.125,0.6875 0.125,0.29688 0.35938,0.51563 0.23437,0.20312 0.5625,0.32812 0.34375,0.10938 0.76562,0.10938 0.40625,0 0.73438,-0.0937 0.32812,-0.10938 0.5625,-0.32813 0.23437,-0.23437 0.35937,-0.5625 0.14063,-0.32812 0.14063,-0.76562 0,-0.45313 -0.15625,-0.76563 -0.14063,-0.32812 -0.40625,-0.53125 -0.26563,-0.21875 -0.64063,-0.32812 -0.375,-0.10938 -0.82812,-0.10938 h -0.85938 z m 12.40442,5.3125 h -6.20312 v -0.85937 l 3.10937,-3.45313 q 0.40625,-0.46875 0.6875,-0.82812 0.28125,-0.35938 0.45313,-0.65625 0.17187,-0.29688 0.23437,-0.5625 0.0781,-0.28125 0.0781,-0.5625 0,-0.35938 -0.125,-0.65625 -0.10938,-0.3125 -0.32813,-0.53125 -0.20312,-0.23438 -0.51562,-0.35938 -0.3125,-0.14062 -0.70313,-0.14062 -0.46875,0 -0.82812,0.14062 -0.34375,0.125 -0.57813,0.375 -0.23437,0.25 -0.34375,0.60938 -0.10937,0.35937 -0.10937,0.79687 h -1.21875 q 0,-0.59375 0.20312,-1.125 0.21875,-0.53125 0.60938,-0.92187 0.39062,-0.40625 0.95312,-0.64063 0.57813,-0.23437 1.3125,-0.23437 0.67188,0 1.20313,0.20312 0.54687,0.20313 0.90625,0.5625 0.375,0.34375 0.57812,0.82813 0.20313,0.46875 0.20313,1.04687 0,0.42188 -0.15625,0.82813 -0.14063,0.40625 -0.39063,0.8125 -0.23437,0.40625 -0.5625,0.8125 -0.3125,0.39062 -0.67187,0.78125 l -2.54688,2.75 h 4.75 z"
       id="path3904"
       inkscape:connector-curvature="0"
       style="fill:#000000;fill-rule:nonzero" />
    <path
       d="m 358.52756,118.35433 h 66.89764 v 49.38583 h -66.89764 z"
       id="path3906"
       inkscape:connector-curvature="0"
       style="fill:#cfe2f3;fill-rule:evenodd" />
    <path
       d="m 358.52756,118.35433 h 66.89764 v 49.38583 h -66.89764 z"
       id="path3908"
       inkscape:connector-curvature="0"
       style="fill-rule:evenodd;stroke:#000000;stroke-width:1;stroke-linecap:butt;stroke-linejoin:round" />
    <path
       d="m 381.30722,140.80037 h 3.59375 v 6 h 2.29687 v 1.04687 h -5.89062 v -1.04687 h 2.39062 v -4.95313 h -2.39062 z m 2.23437,-1.84375 q 0,-0.29688 0.17188,-0.5 0.1875,-0.20313 0.54687,-0.20313 0.35938,0 0.53125,0.20313 0.1875,0.20312 0.1875,0.5 0,0.29687 -0.1875,0.5 -0.17187,0.1875 -0.53125,0.1875 -0.35937,0 -0.54687,-0.1875 -0.17188,-0.20313 -0.17188,-0.5 z m 6.96695,3.57812 h 0.85938 q 0.46875,0 0.8125,-0.125 0.34375,-0.125 0.57812,-0.34375 0.25,-0.21875 0.35938,-0.51562 0.125,-0.29688 0.125,-0.65625 0,-0.82813 -0.42188,-1.23438 -0.42187,-0.42187 -1.23437,-0.42187 -0.375,0 -0.70313,0.10937 -0.3125,0.10938 -0.54687,0.32813 -0.21875,0.21875 -0.34375,0.51562 -0.10938,0.29688 -0.10938,0.67188 h -1.21875 q 0,-0.54688 0.20313,-1.01563 0.21875,-0.48437 0.59375,-0.84375 0.39062,-0.35937 0.92187,-0.5625 0.54688,-0.20312 1.20313,-0.20312 0.64062,0 1.15625,0.17187 0.53125,0.17188 0.90625,0.51563 0.39062,0.34375 0.59375,0.84375 0.20312,0.5 0.20312,1.15625 0,0.26562 -0.0781,0.5625 -0.0781,0.29687 -0.26563,0.57812 -0.17187,0.26563 -0.45312,0.51563 -0.26563,0.23437 -0.65625,0.40625 0.46875,0.14062 0.76562,0.39062 0.3125,0.23438 0.5,0.54688 0.1875,0.29687 0.26563,0.625 0.0781,0.32812 0.0781,0.65625 0,0.65625 -0.23437,1.17187 -0.23438,0.51563 -0.64063,0.875 -0.39062,0.35938 -0.95312,0.54688 -0.54688,0.17187 -1.17188,0.17187 -0.625,0 -1.1875,-0.17187 -0.54687,-0.17188 -0.95312,-0.5 -0.39063,-0.34375 -0.64063,-0.82813 -0.23437,-0.5 -0.23437,-1.125 h 1.20312 q 0,0.375 0.125,0.6875 0.125,0.29688 0.35938,0.51563 0.23437,0.20312 0.5625,0.32812 0.34375,0.10938 0.76562,0.10938 0.40625,0 0.73438,-0.0937 0.32812,-0.10938 0.5625,-0.32813 0.23437,-0.23437 0.35937,-0.5625 0.14063,-0.32812 0.14063,-0.76562 0,-0.45313 -0.15625,-0.76563 -0.14063,-0.32812 -0.40625,-0.53125 -0.26563,-0.21875 -0.64063,-0.32812 -0.375,-0.10938 -0.82812,-0.10938 h -0.85938 z m 12.40442,5.3125 h -6.20312 v -0.85937 l 3.10937,-3.45313 q 0.40625,-0.46875 0.6875,-0.82812 0.28125,-0.35938 0.45313,-0.65625 0.17187,-0.29688 0.23437,-0.5625 0.0781,-0.28125 0.0781,-0.5625 0,-0.35938 -0.125,-0.65625 -0.10938,-0.3125 -0.32813,-0.53125 -0.20312,-0.23438 -0.51562,-0.35938 -0.3125,-0.14062 -0.70313,-0.14062 -0.46875,0 -0.82812,0.14062 -0.34375,0.125 -0.57813,0.375 -0.23437,0.25 -0.34375,0.60938 -0.10937,0.35937 -0.10937,0.79687 h -1.21875 q 0,-0.59375 0.20312,-1.125 0.21875,-0.53125 0.60938,-0.92187 0.39062,-0.40625 0.95312,-0.64063 0.57813,-0.23437 1.3125,-0.23437 0.67188,0 1.20313,0.20312 0.54687,0.20313 0.90625,0.5625 0.375,0.34375 0.57812,0.82813 0.20313,0.46875 0.20313,1.04687 0,0.42188 -0.15625,0.82813 -0.14063,0.40625 -0.39063,0.8125 -0.23437,0.40625 -0.5625,0.8125 -0.3125,0.39062 -0.67187,0.78125 l -2.54688,2.75 h 4.75 z"
       id="path3910"
       inkscape:connector-curvature="0"
       style="fill:#000000;fill-rule:nonzero" />
    <path
       d="m 283.6299,363.35434 h 100.34647 v 49.3858 H 283.6299 Z"
       id="path3912"
       inkscape:connector-curvature="0"
       style="fill:#d9ead3;fill-rule:evenodd" />
    <path
       d="m 283.6299,363.35434 h 100.34647 v 49.3858 H 283.6299 Z"
       id="path3914"
       inkscape:connector-curvature="0"
       style="fill-rule:evenodd;stroke:#000000;stroke-width:1;stroke-linecap:butt;stroke-linejoin:round" />
    <path
       d="m 294.71848,389.2691 q 0,-0.78125 0.1875,-1.4375 0.20312,-0.67188 0.5625,-1.14063 0.375,-0.48437 0.89062,-0.75 0.53125,-0.26562 1.17188,-0.26562 0.64062,0 1.10937,0.21875 0.46875,0.20312 0.8125,0.60937 v -3.65625 h 1.20313 v 10 h -1.10938 l -0.0469,-0.73437 q -0.34375,0.42187 -0.84375,0.64062 -0.48438,0.21875 -1.14063,0.21875 -0.625,0 -1.15625,-0.26562 -0.51562,-0.28125 -0.875,-0.75 -0.35937,-0.48438 -0.5625,-1.14063 -0.20312,-0.65625 -0.20312,-1.40625 z m 1.20312,0.14062 q 0,0.51563 0.10938,0.98438 0.10937,0.45312 0.34375,0.8125 0.23437,0.34375 0.57812,0.54687 0.35938,0.20313 0.875,0.20313 0.29688,0 0.54688,-0.0625 0.25,-0.0781 0.45312,-0.20313 0.20313,-0.14062 0.35938,-0.32812 0.15625,-0.1875 0.26562,-0.42188 v -3.26562 q -0.23437,-0.42188 -0.64062,-0.70313 -0.39063,-0.28125 -0.98438,-0.28125 -0.5,0 -0.85937,0.21875 -0.35938,0.20313 -0.59375,0.5625 -0.23438,0.34375 -0.34375,0.8125 -0.10938,0.46875 -0.10938,0.98438 z m 7.21695,-3.60937 h 3.59375 v 6 h 2.29688 v 1.04687 h -5.89063 v -1.04687 h 2.39063 v -4.95313 h -2.39063 z m 2.23438,-1.84375 q 0,-0.29688 0.17187,-0.5 0.1875,-0.20313 0.54688,-0.20313 0.35937,0 0.53125,0.20313 0.1875,0.20312 0.1875,0.5 0,0.29687 -0.1875,0.5 -0.17188,0.1875 -0.53125,0.1875 -0.35938,0 -0.54688,-0.1875 -0.17187,-0.20313 -0.17187,-0.5 z m 8.56067,8.04687 q 0.32812,0 0.64062,-0.0937 0.3125,-0.10937 0.54688,-0.29687 0.25,-0.1875 0.39062,-0.4375 0.14063,-0.25 0.15625,-0.54688 h 1.14063 q -0.0156,0.46875 -0.25,0.90625 -0.23438,0.42188 -0.64063,0.75 -0.39062,0.3125 -0.90625,0.5 -0.51562,0.1875 -1.07812,0.1875 -0.79688,0 -1.39063,-0.28125 -0.59375,-0.28125 -1,-0.76562 -0.40625,-0.48438 -0.60937,-1.125 -0.1875,-0.64063 -0.1875,-1.34375 v -0.26563 q 0,-0.70312 0.1875,-1.32812 0.20312,-0.64063 0.60937,-1.125 0.40625,-0.48438 1,-0.76563 0.59375,-0.29687 1.39063,-0.29687 0.625,0 1.15625,0.20312 0.53125,0.1875 0.90625,0.53125 0.375,0.34375 0.59375,0.8125 0.21875,0.46875 0.21875,1 h -1.14063 q -0.0156,-0.3125 -0.15625,-0.59375 -0.125,-0.28125 -0.35937,-0.5 -0.21875,-0.21875 -0.53125,-0.34375 -0.3125,-0.125 -0.6875,-0.125 -0.54688,0 -0.9375,0.23438 -0.375,0.21875 -0.60938,0.57812 -0.23437,0.35938 -0.34375,0.8125 -0.0937,0.45313 -0.0937,0.90625 v 0.26563 q 0,0.46875 0.0937,0.92187 0.10938,0.45313 0.34375,0.8125 0.23438,0.35938 0.60938,0.59375 0.375,0.21875 0.9375,0.21875 z m 7.85757,-7.90625 v 1.70313 h 2.6875 v 0.9375 h -2.6875 v 3.82812 q 0,0.40625 0.0937,0.67188 0.10938,0.26562 0.29688,0.4375 0.1875,0.15625 0.42187,0.21875 0.23438,0.0625 0.5,0.0625 0.20313,0 0.40625,-0.0156 0.20313,-0.0312 0.40625,-0.0625 0.20313,-0.0312 0.375,-0.0625 0.17188,-0.0469 0.28125,-0.0625 l 0.17188,0.84375 q -0.15625,0.0937 -0.375,0.17188 -0.20313,0.0625 -0.46875,0.10937 -0.25,0.0469 -0.53125,0.0625 -0.28125,0.0312 -0.5625,0.0312 -0.46875,0 -0.875,-0.125 -0.40625,-0.14062 -0.70313,-0.42187 -0.29687,-0.29688 -0.48437,-0.75 -0.17188,-0.46875 -0.17188,-1.10938 v -3.82812 h -1.84375 v -0.9375 h 1.84375 v -1.70313 z m 5.34192,1.70313 h 3.59375 v 6 h 2.29688 v 1.04687 h -5.89063 v -1.04687 h 2.39063 v -4.95313 h -2.39063 z m 2.23438,-1.84375 q 0,-0.29688 0.17187,-0.5 0.1875,-0.20313 0.54688,-0.20313 0.35937,0 0.53125,0.20313 0.1875,0.20312 0.1875,0.5 0,0.29687 -0.1875,0.5 -0.17188,0.1875 -0.53125,0.1875 -0.35938,0 -0.54688,-0.1875 -0.17187,-0.20313 -0.17187,-0.5 z m 5.23257,5.3125 q 0,-0.76563 0.21875,-1.42188 0.21875,-0.65625 0.625,-1.14062 0.42188,-0.48438 1.01563,-0.75 0.59375,-0.28125 1.32812,-0.28125 0.75,0 1.34375,0.28125 0.59375,0.26562 1,0.75 0.42188,0.48437 0.64063,1.14062 0.23437,0.65625 0.23437,1.42188 v 0.14062 q 0,0.75 -0.23437,1.40625 -0.21875,0.65625 -0.64063,1.14063 -0.40625,0.46875 -1,0.75 -0.57812,0.26562 -1.32812,0.26562 -0.75,0 -1.34375,-0.26562 -0.59375,-0.28125 -1.01563,-0.75 -0.40625,-0.48438 -0.625,-1.14063 -0.21875,-0.65625 -0.21875,-1.40625 z m 1.20313,0.14062 q 0,0.51563 0.125,0.98438 0.125,0.46875 0.375,0.82812 0.25,0.35938 0.625,0.57813 0.375,0.20312 0.875,0.20312 0.5,0 0.875,-0.20312 0.375,-0.21875 0.625,-0.57813 0.25,-0.35937 0.375,-0.82812 0.125,-0.46875 0.125,-0.98438 v -0.14062 q 0,-0.51563 -0.14063,-0.98438 -0.125,-0.48437 -0.375,-0.84375 -0.25,-0.35937 -0.625,-0.5625 -0.375,-0.21875 -0.875,-0.21875 -0.5,0 -0.875,0.21875 -0.35937,0.20313 -0.60937,0.5625 -0.25,0.35938 -0.375,0.84375 -0.125,0.46875 -0.125,0.98438 z m 8.21692,-3.60937 0.0781,1.04687 q 0.39063,-0.54687 0.9375,-0.85937 0.5625,-0.3125 1.25,-0.3125 0.5625,0 1.01563,0.15625 0.45312,0.15625 0.76562,0.48437 0.32813,0.32813 0.5,0.84375 0.17188,0.51563 0.17188,1.21875 v 4.46875 h -1.20313 v -4.4375 q 0,-0.46875 -0.10937,-0.79687 -0.10938,-0.32813 -0.3125,-0.53125 -0.20313,-0.20313 -0.5,-0.29688 -0.29688,-0.0937 -0.6875,-0.0937 -0.59375,0 -1.0625,0.3125 -0.45313,0.29688 -0.71875,0.79688 v 5.04687 h -1.21875 v -7.04687 z m 11.54507,7.04687 q -0.0781,-0.14062 -0.125,-0.34375 -0.0312,-0.20312 -0.0625,-0.42187 -0.17188,0.1875 -0.40625,0.34375 -0.21875,0.15625 -0.5,0.28125 -0.26563,0.125 -0.57813,0.1875 -0.29687,0.0781 -0.64062,0.0781 -0.5625,0 -1.01563,-0.15625 -0.45312,-0.15625 -0.76562,-0.4375 -0.3125,-0.28125 -0.48438,-0.65625 -0.17187,-0.39062 -0.17187,-0.82812 0,-0.57813 0.23437,-1.01563 0.23438,-0.4375 0.65625,-0.71875 0.42188,-0.29687 1.01563,-0.4375 0.59375,-0.14062 1.32812,-0.14062 h 1.3125 v -0.5625 q 0,-0.3125 -0.125,-0.5625 -0.10937,-0.26563 -0.32812,-0.4375 -0.20313,-0.17188 -0.51563,-0.26563 -0.3125,-0.10937 -0.70312,-0.10937 -0.34375,0 -0.64063,0.0937 -0.28125,0.0937 -0.48437,0.25 -0.1875,0.14062 -0.29688,0.34375 -0.0937,0.20312 -0.0937,0.42187 h -1.21875 q 0.0156,-0.375 0.20313,-0.75 0.1875,-0.375 0.54687,-0.67187 0.35938,-0.29688 0.875,-0.46875 0.53125,-0.1875 1.1875,-0.1875 0.59375,0 1.10938,0.15625 0.51562,0.14062 0.89062,0.4375 0.375,0.29687 0.57813,0.73437 0.21875,0.4375 0.21875,1.03125 v 3.28125 q 0,0.34375 0.0625,0.75 0.0625,0.39063 0.1875,0.67188 v 0.10937 z m -2.14063,-0.92187 q 0.35938,0 0.65625,-0.0781 0.3125,-0.0937 0.5625,-0.25 0.25,-0.15625 0.42188,-0.34375 0.1875,-0.1875 0.29687,-0.39062 v -1.4375 h -1.125 q -1.04687,0 -1.64062,0.3125 -0.57813,0.3125 -0.57813,0.98437 0,0.26563 0.0781,0.48438 0.0937,0.21875 0.26562,0.39062 0.1875,0.15625 0.45313,0.25 0.26562,0.0781 0.60937,0.0781 z m 10.12317,-6.25 q 0.17188,0 0.34375,0.0156 0.1875,0 0.34375,0.0312 0.17188,0.0156 0.3125,0.0469 0.14063,0.0312 0.23438,0.0781 l -0.17188,1.17188 q -0.34375,-0.0781 -0.65625,-0.10938 -0.3125,-0.0312 -0.65625,-0.0312 -0.85937,0 -1.39062,0.39063 -0.51563,0.375 -0.76563,1.0625 v 4.51562 h -1.20312 v -7.04687 h 1.14062 l 0.0625,1.125 q 0.4375,-0.57813 1.03125,-0.90625 0.60938,-0.34375 1.375,-0.34375 z m 5.96695,4.67187 0.3125,0.85938 2.15625,-5.40625 h 1.34375 l -3.57812,8.14062 q -0.125,0.26563 -0.3125,0.5625 -0.1875,0.3125 -0.46875,0.57813 -0.26563,0.26562 -0.64063,0.4375 -0.35937,0.17187 -0.82812,0.17187 -0.0937,0 -0.20313,-0.0156 -0.0937,0 -0.20312,-0.0156 -0.0937,-0.0156 -0.1875,-0.0469 -0.0937,-0.0156 -0.15625,-0.0312 l 0.20312,-0.98438 q 0.0469,0 0.125,0 0.0781,0.0156 0.15625,0.0156 0.0781,0.0156 0.15625,0.0156 0.0781,0.0156 0.125,0.0156 0.25,0 0.45313,-0.14063 0.20312,-0.14062 0.35937,-0.32812 0.17188,-0.1875 0.28125,-0.39063 0.10938,-0.20312 0.1875,-0.32812 l 0.46875,-0.9375 -3.03125,-6.71875 h 1.35938 z"
       id="path3916"
       inkscape:connector-curvature="0"
       style="fill:#000000;fill-rule:nonzero" />
    <path
       d="m 234.38846,214.09987 v 0 c 0,-3.77473 3.06003,-6.83478 6.83478,-6.83478 h 75.71625 c 1.81271,0 3.55118,0.72009 4.83294,2.00186 1.28177,1.28177 2.00187,3.02022 2.00187,4.83292 v 27.33832 c 0,3.77475 -3.06006,6.83478 -6.83481,6.83478 h -75.71625 c -3.77475,0 -6.83478,-3.06003 -6.83478,-6.83478 z"
       id="path3918"
       inkscape:connector-curvature="0"
       style="fill:#ead1dc;fill-rule:evenodd" />
    <path
       d="m 234.38846,214.09987 v 0 c 0,-3.77473 3.06003,-6.83478 6.83478,-6.83478 h 75.71625 c 1.81271,0 3.55118,0.72009 4.83294,2.00186 1.28177,1.28177 2.00187,3.02022 2.00187,4.83292 v 27.33832 c 0,3.77475 -3.06006,6.83478 -6.83481,6.83478 h -75.71625 c -3.77475,0 -6.83478,-3.06003 -6.83478,-6.83478 z"
       id="path3920"
       inkscape:connector-curvature="0"
       style="fill-rule:evenodd;stroke:#000000;stroke-width:1;stroke-linecap:butt;stroke-linejoin:round" />
    <path
       d="m 252.78525,231.60028 q -0.35938,0.51562 -0.89063,0.8125 -0.51562,0.28125 -1.20312,0.28125 -0.5625,0 -1.01563,-0.17188 -0.4375,-0.17187 -0.76562,-0.53125 -0.3125,-0.35937 -0.48438,-0.92187 -0.17187,-0.5625 -0.17187,-1.35938 v -4.1875 h 1.20312 v 4.20313 q 0,0.57812 0.0937,0.95312 0.0937,0.375 0.26563,0.60938 0.1875,0.21875 0.45312,0.3125 0.26563,0.0781 0.60938,0.0781 0.73437,0 1.1875,-0.29687 0.45312,-0.29688 0.67187,-0.79688 v -5.0625 h 1.20313 v 7.04688 h -1.09375 z m 6.27945,-7.78125 v 1.70312 h 2.6875 v 0.9375 h -2.6875 v 3.82813 q 0,0.40625 0.0937,0.67187 0.10937,0.26563 0.29687,0.4375 0.1875,0.15625 0.42188,0.21875 0.23437,0.0625 0.5,0.0625 0.20312,0 0.40625,-0.0156 0.20312,-0.0312 0.40625,-0.0625 0.20312,-0.0312 0.375,-0.0625 0.17187,-0.0469 0.28125,-0.0625 l 0.17187,0.84375 q -0.15625,0.0937 -0.375,0.17187 -0.20312,0.0625 -0.46875,0.10938 -0.25,0.0469 -0.53125,0.0625 -0.28125,0.0312 -0.5625,0.0312 -0.46875,0 -0.875,-0.125 -0.40625,-0.14063 -0.70312,-0.42188 -0.29688,-0.29687 -0.48438,-0.75 -0.17187,-0.46875 -0.17187,-1.10937 v -3.82813 h -1.84375 v -0.9375 h 1.84375 V 223.819 Z m 6.93567,8.75 v -6.10938 h -1.9375 v -0.9375 h 1.9375 v -0.48437 q 0,-0.6875 0.20312,-1.1875 0.20313,-0.51563 0.5625,-0.85938 0.35938,-0.34375 0.85938,-0.51562 0.51562,-0.1875 1.14062,-0.1875 0.4375,0 0.84375,0.0781 0.40625,0.0781 0.82813,0.1875 l -0.14063,0.98438 q -0.26562,-0.0937 -0.625,-0.15625 -0.35937,-0.0625 -0.75,-0.0625 -0.85937,0 -1.28125,0.42187 -0.42187,0.42188 -0.42187,1.29688 v 0.48437 h 2.71875 v 0.9375 h -2.71875 v 6.10938 z m 12.05157,-7 q -0.0156,0.70312 -0.39062,1.26562 -0.375,0.54688 -1,0.85938 0.35937,0.15625 0.65625,0.39062 0.29687,0.23438 0.5,0.53125 0.21875,0.29688 0.32812,0.65625 0.10938,0.34375 0.10938,0.73438 0,0.65625 -0.23438,1.15625 -0.23437,0.5 -0.64062,0.84375 -0.40625,0.32812 -0.95313,0.51562 -0.54687,0.17188 -1.17187,0.17188 -0.64063,0 -1.1875,-0.17188 -0.54688,-0.17187 -0.95313,-0.51562 -0.40625,-0.34375 -0.64062,-0.84375 -0.23438,-0.5 -0.23438,-1.15625 0,-0.39063 0.10938,-0.73438 0.10937,-0.35937 0.3125,-0.65625 0.21875,-0.29687 0.5,-0.53125 0.29687,-0.23437 0.65625,-0.39062 -0.3125,-0.15625 -0.5625,-0.375 -0.25,-0.21875 -0.4375,-0.48438 -0.17188,-0.28125 -0.26563,-0.59375 -0.0937,-0.32812 -0.0937,-0.67187 0,-0.625 0.20313,-1.10938 0.21875,-0.48437 0.57812,-0.8125 0.375,-0.32812 0.875,-0.5 0.51563,-0.1875 1.125,-0.1875 0.59375,0 1.10938,0.1875 0.51562,0.17188 0.89062,0.5 0.375,0.32813 0.59375,0.8125 0.21875,0.48438 0.21875,1.10938 z m -1,4.42187 q 0,-0.40625 -0.14062,-0.73437 -0.125,-0.32813 -0.375,-0.5625 -0.23438,-0.25 -0.5625,-0.375 -0.32813,-0.125 -0.73438,-0.125 -0.40625,0 -0.75,0.125 -0.32812,0.125 -0.5625,0.375 -0.23437,0.23437 -0.35937,0.5625 -0.125,0.32812 -0.125,0.73437 0,0.40625 0.125,0.73438 0.125,0.3125 0.35937,0.53125 0.23438,0.21875 0.5625,0.34375 0.34375,0.10937 0.76563,0.10937 0.39062,0 0.71875,-0.10937 0.34375,-0.125 0.57812,-0.34375 0.23438,-0.21875 0.35938,-0.53125 0.14062,-0.32813 0.14062,-0.73438 z m -0.21875,-4.40625 q 0,-0.35937 -0.125,-0.65625 -0.10937,-0.29687 -0.32812,-0.51562 -0.20313,-0.21875 -0.5,-0.32813 -0.29688,-0.125 -0.64063,-0.125 -0.35937,0 -0.64062,0.10938 -0.28125,0.10937 -0.5,0.32812 -0.20313,0.21875 -0.32813,0.51563 -0.10937,0.29687 -0.10937,0.67187 0,0.375 0.10937,0.67188 0.125,0.29687 0.32813,0.51562 0.21875,0.20313 0.5,0.3125 0.29687,0.10938 0.65625,0.10938 0.34375,0 0.625,-0.10938 0.29687,-0.10937 0.5,-0.3125 0.21875,-0.21875 0.32812,-0.51562 0.125,-0.3125 0.125,-0.67188 z m 8.6388,3.32813 h -4.96875 v -0.98438 h 4.96875 z m 7.42657,1.78125 q 0,-0.20313 -0.0937,-0.375 -0.0781,-0.17188 -0.28125,-0.3125 -0.20312,-0.15625 -0.53125,-0.26563 -0.32812,-0.125 -0.82812,-0.21875 -0.60938,-0.125 -1.10938,-0.29687 -0.48437,-0.1875 -0.84375,-0.42188 -0.35937,-0.25 -0.5625,-0.57812 -0.1875,-0.32813 -0.1875,-0.76563 0,-0.42187 0.20313,-0.79687 0.20312,-0.375 0.5625,-0.65625 0.375,-0.28125 0.875,-0.4375 0.5,-0.17188 1.10937,-0.17188 0.65625,0 1.17188,0.17188 0.51562,0.17187 0.875,0.46875 0.375,0.29687 0.5625,0.70312 0.20312,0.39063 0.20312,0.85938 h -1.20312 q 0,-0.23438 -0.125,-0.45313 -0.10938,-0.21875 -0.3125,-0.375 -0.20313,-0.17187 -0.5,-0.28125 -0.29688,-0.10937 -0.67188,-0.10937 -0.39062,0 -0.6875,0.0937 -0.28125,0.0781 -0.46875,0.21875 -0.1875,0.14062 -0.29687,0.34375 -0.0937,0.1875 -0.0937,0.39062 0,0.20313 0.0781,0.375 0.0781,0.15625 0.26563,0.28125 0.20312,0.125 0.51562,0.23438 0.32813,0.10937 0.82813,0.20312 0.64062,0.14063 1.15625,0.32813 0.51562,0.17187 0.85937,0.42187 0.35938,0.25 0.54688,0.57813 0.1875,0.32812 0.1875,0.76562 0,0.46875 -0.21875,0.85938 -0.20313,0.375 -0.57813,0.65625 -0.375,0.26562 -0.90625,0.42187 -0.53125,0.14063 -1.15625,0.14063 -0.71875,0 -1.28125,-0.1875 -0.54687,-0.1875 -0.9375,-0.5 -0.39062,-0.32813 -0.59375,-0.73438 -0.20312,-0.42187 -0.20312,-0.875 h 1.20312 q 0.0312,0.375 0.20313,0.64063 0.17187,0.25 0.42187,0.40625 0.26563,0.15625 0.57813,0.21875 0.3125,0.0625 0.60937,0.0625 0.76563,0 1.20313,-0.28125 0.45312,-0.28125 0.45312,-0.75 z m 6.17005,-6.875 v 1.70312 h 2.6875 v 0.9375 h -2.6875 v 3.82813 q 0,0.40625 0.0937,0.67187 0.10937,0.26563 0.29687,0.4375 0.1875,0.15625 0.42188,0.21875 0.23437,0.0625 0.5,0.0625 0.20312,0 0.40625,-0.0156 0.20312,-0.0312 0.40625,-0.0625 0.20312,-0.0312 0.375,-0.0625 0.17187,-0.0469 0.28125,-0.0625 l 0.17187,0.84375 q -0.15625,0.0937 -0.375,0.17187 -0.20312,0.0625 -0.46875,0.10938 -0.25,0.0469 -0.53125,0.0625 -0.28125,0.0312 -0.5625,0.0312 -0.46875,0 -0.875,-0.125 -0.40625,-0.14063 -0.70312,-0.42188 -0.29688,-0.29687 -0.48438,-0.75 -0.17187,-0.46875 -0.17187,-1.10937 v -3.82813 h -1.84375 v -0.9375 h 1.84375 V 223.819 Z m 9.76382,1.57812 q 0.17188,0 0.34375,0.0156 0.1875,0 0.34375,0.0312 0.17188,0.0156 0.3125,0.0469 0.14063,0.0312 0.23438,0.0781 l -0.17188,1.17187 q -0.34375,-0.0781 -0.65625,-0.10937 -0.3125,-0.0312 -0.65625,-0.0312 -0.85937,0 -1.39062,0.39062 -0.51563,0.375 -0.76563,1.0625 v 4.51563 h -1.20312 v -7.04688 h 1.14062 l 0.0625,1.125 q 0.4375,-0.57812 1.03125,-0.90625 0.60938,-0.34375 1.375,-0.34375 z"
       id="path3922"
       inkscape:connector-curvature="0"
       style="fill:#000000;fill-rule:nonzero" />
    <path
       d="m 339.28348,214.09987 v 0 c 0,-3.77473 3.06003,-6.83478 6.83478,-6.83478 h 75.71625 c 1.81271,0 3.55115,0.72009 4.83291,2.00186 1.28177,1.28177 2.00187,3.02022 2.00187,4.83292 v 27.33832 c 0,3.77475 -3.06003,6.83478 -6.83478,6.83478 h -75.71625 c -3.77475,0 -6.83478,-3.06003 -6.83478,-6.83478 z"
       id="path3924"
       inkscape:connector-curvature="0"
       style="fill:#ead1dc;fill-rule:evenodd" />
    <path
       d="m 339.28348,214.09987 v 0 c 0,-3.77473 3.06003,-6.83478 6.83478,-6.83478 h 75.71625 c 1.81271,0 3.55115,0.72009 4.83291,2.00186 1.28177,1.28177 2.00187,3.02022 2.00187,4.83292 v 27.33832 c 0,3.77475 -3.06003,6.83478 -6.83478,6.83478 h -75.71625 c -3.77475,0 -6.83478,-3.06003 -6.83478,-6.83478 z"
       id="path3926"
       inkscape:connector-curvature="0"
       style="fill-rule:evenodd;stroke:#000000;stroke-width:1;stroke-linecap:butt;stroke-linejoin:round" />
    <path
       d="m 381.7438,232.56903 q -0.0781,-0.14063 -0.125,-0.34375 -0.0312,-0.20313 -0.0625,-0.42188 -0.17187,0.1875 -0.40625,0.34375 -0.21875,0.15625 -0.5,0.28125 -0.26562,0.125 -0.57812,0.1875 -0.29688,0.0781 -0.64063,0.0781 -0.5625,0 -1.01562,-0.15625 -0.45313,-0.15625 -0.76563,-0.4375 -0.3125,-0.28125 -0.48437,-0.65625 -0.17188,-0.39063 -0.17188,-0.82813 0,-0.57812 0.23438,-1.01562 0.23437,-0.4375 0.65625,-0.71875 0.42187,-0.29688 1.01562,-0.4375 0.59375,-0.14063 1.32813,-0.14063 h 1.3125 v -0.5625 q 0,-0.3125 -0.125,-0.5625 -0.10938,-0.26562 -0.32813,-0.4375 -0.20312,-0.17187 -0.51562,-0.26562 -0.3125,-0.10938 -0.70313,-0.10938 -0.34375,0 -0.64062,0.0937 -0.28125,0.0937 -0.48438,0.25 -0.1875,0.14063 -0.29687,0.34375 -0.0937,0.20313 -0.0937,0.42188 h -1.21875 q 0.0156,-0.375 0.20312,-0.75 0.1875,-0.375 0.54688,-0.67188 0.35937,-0.29687 0.875,-0.46875 0.53125,-0.1875 1.1875,-0.1875 0.59375,0 1.10937,0.15625 0.51563,0.14063 0.89063,0.4375 0.375,0.29688 0.57812,0.73438 0.21875,0.4375 0.21875,1.03125 v 3.28125 q 0,0.34375 0.0625,0.75 0.0625,0.39062 0.1875,0.67187 v 0.10938 z m -2.14062,-0.92188 q 0.35937,0 0.65625,-0.0781 0.3125,-0.0937 0.5625,-0.25 0.25,-0.15625 0.42187,-0.34375 0.1875,-0.1875 0.29688,-0.39063 v -1.4375 h -1.125 q -1.04688,0 -1.64063,0.3125 -0.57812,0.3125 -0.57812,0.98438 0,0.26562 0.0781,0.48437 0.0937,0.21875 0.26563,0.39063 0.1875,0.15625 0.45312,0.25 0.26563,0.0781 0.60938,0.0781 z m 10.18569,-0.95312 q 0,-0.20313 -0.0937,-0.375 -0.0781,-0.17188 -0.28125,-0.3125 -0.20312,-0.15625 -0.53125,-0.26563 -0.32812,-0.125 -0.82812,-0.21875 -0.60938,-0.125 -1.10938,-0.29687 -0.48437,-0.1875 -0.84375,-0.42188 -0.35937,-0.25 -0.5625,-0.57812 -0.1875,-0.32813 -0.1875,-0.76563 0,-0.42187 0.20313,-0.79687 0.20312,-0.375 0.5625,-0.65625 0.375,-0.28125 0.875,-0.4375 0.5,-0.17188 1.10937,-0.17188 0.65625,0 1.17188,0.17188 0.51562,0.17187 0.875,0.46875 0.375,0.29687 0.5625,0.70312 0.20312,0.39063 0.20312,0.85938 h -1.20312 q 0,-0.23438 -0.125,-0.45313 -0.10938,-0.21875 -0.3125,-0.375 -0.20313,-0.17187 -0.5,-0.28125 -0.29688,-0.10937 -0.67188,-0.10937 -0.39062,0 -0.6875,0.0937 -0.28125,0.0781 -0.46875,0.21875 -0.1875,0.14062 -0.29687,0.34375 -0.0937,0.1875 -0.0937,0.39062 0,0.20313 0.0781,0.375 0.0781,0.15625 0.26563,0.28125 0.20312,0.125 0.51562,0.23438 0.32813,0.10937 0.82813,0.20312 0.64062,0.14063 1.15625,0.32813 0.51562,0.17187 0.85937,0.42187 0.35938,0.25 0.54688,0.57813 0.1875,0.32812 0.1875,0.76562 0,0.46875 -0.21875,0.85938 -0.20313,0.375 -0.57813,0.65625 -0.375,0.26562 -0.90625,0.42187 -0.53125,0.14063 -1.15625,0.14063 -0.71875,0 -1.28125,-0.1875 -0.54687,-0.1875 -0.9375,-0.5 -0.39062,-0.32813 -0.59375,-0.73438 -0.20312,-0.42187 -0.20312,-0.875 h 1.20312 q 0.0312,0.375 0.20313,0.64063 0.17187,0.25 0.42187,0.40625 0.26563,0.15625 0.57813,0.21875 0.3125,0.0625 0.60937,0.0625 0.76563,0 1.20313,-0.28125 0.45312,-0.28125 0.45312,-0.75 z"
       id="path3928"
       inkscape:connector-curvature="0"
       style="fill:#000000;fill-rule:nonzero" />
    <path
       d="m 289.11023,292.1445 v 0 c 0,-3.77475 3.06003,-6.83478 6.83478,-6.83478 h 75.71628 c 1.81268,0 3.55115,0.72009 4.83291,2.00186 1.28177,1.28177 2.00187,3.02021 2.00187,4.83292 v 27.33829 c 0,3.77475 -3.06003,6.83481 -6.83478,6.83481 h -75.71628 c -3.77475,0 -6.83478,-3.06006 -6.83478,-6.83481 z"
       id="path3930"
       inkscape:connector-curvature="0"
       style="fill:#ead1dc;fill-rule:evenodd" />
    <path
       d="m 289.11023,292.1445 v 0 c 0,-3.77475 3.06003,-6.83478 6.83478,-6.83478 h 75.71628 c 1.81268,0 3.55115,0.72009 4.83291,2.00186 1.28177,1.28177 2.00187,3.02021 2.00187,4.83292 v 27.33829 c 0,3.77475 -3.06003,6.83481 -6.83478,6.83481 h -75.71628 c -3.77475,0 -6.83478,-3.06006 -6.83478,-6.83481 z"
       id="path3932"
       inkscape:connector-curvature="0"
       style="fill-rule:evenodd;stroke:#000000;stroke-width:1;stroke-linecap:butt;stroke-linejoin:round" />
    <path
       d="m 318.71304,307.03552 q 0,-0.78125 0.1875,-1.4375 0.20312,-0.67187 0.5625,-1.14062 0.375,-0.48438 0.89062,-0.75 0.53125,-0.26563 1.17188,-0.26563 0.64062,0 1.10937,0.21875 0.46875,0.20313 0.8125,0.60938 v -3.65625 h 1.20313 v 10 h -1.10938 l -0.0469,-0.73438 q -0.34375,0.42188 -0.84375,0.64063 -0.48438,0.21875 -1.14063,0.21875 -0.625,0 -1.15625,-0.26563 -0.51562,-0.28125 -0.875,-0.75 -0.35937,-0.48437 -0.5625,-1.14062 -0.20312,-0.65625 -0.20312,-1.40625 z m 1.20312,0.14063 q 0,0.51562 0.10938,0.98437 0.10937,0.45313 0.34375,0.8125 0.23437,0.34375 0.57812,0.54688 0.35938,0.20312 0.875,0.20312 0.29688,0 0.54688,-0.0625 0.25,-0.0781 0.45312,-0.20312 0.20313,-0.14063 0.35938,-0.32813 0.15625,-0.1875 0.26562,-0.42187 v -3.26563 q -0.23437,-0.42187 -0.64062,-0.70312 -0.39063,-0.28125 -0.98438,-0.28125 -0.5,0 -0.85937,0.21875 -0.35938,0.20312 -0.59375,0.5625 -0.23438,0.34375 -0.34375,0.8125 -0.10938,0.46875 -0.10938,0.98437 z m 7.21692,-3.60938 h 3.59375 v 6 h 2.29688 v 1.04688 h -5.89063 v -1.04688 h 2.39063 v -4.95312 h -2.39063 z m 2.23438,-1.84375 q 0,-0.29687 0.17187,-0.5 0.1875,-0.20312 0.54688,-0.20312 0.35937,0 0.53125,0.20312 0.1875,0.20313 0.1875,0.5 0,0.29688 -0.1875,0.5 -0.17188,0.1875 -0.53125,0.1875 -0.35938,0 -0.54688,-0.1875 -0.17187,-0.20312 -0.17187,-0.5 z m 8.5607,8.04688 q 0.32812,0 0.64062,-0.0937 0.3125,-0.10938 0.54688,-0.29688 0.25,-0.1875 0.39062,-0.4375 0.14063,-0.25 0.15625,-0.54687 h 1.14063 q -0.0156,0.46875 -0.25,0.90625 -0.23438,0.42187 -0.64063,0.75 -0.39062,0.3125 -0.90625,0.5 -0.51562,0.1875 -1.07812,0.1875 -0.79688,0 -1.39063,-0.28125 -0.59375,-0.28125 -1,-0.76563 -0.40625,-0.48437 -0.60937,-1.125 -0.1875,-0.64062 -0.1875,-1.34375 v -0.26562 q 0,-0.70313 0.1875,-1.32813 0.20312,-0.64062 0.60937,-1.125 0.40625,-0.48437 1,-0.76562 0.59375,-0.29688 1.39063,-0.29688 0.625,0 1.15625,0.20313 0.53125,0.1875 0.90625,0.53125 0.375,0.34375 0.59375,0.8125 0.21875,0.46875 0.21875,1 h -1.14063 q -0.0156,-0.3125 -0.15625,-0.59375 -0.125,-0.28125 -0.35937,-0.5 -0.21875,-0.21875 -0.53125,-0.34375 -0.3125,-0.125 -0.6875,-0.125 -0.54688,0 -0.9375,0.23437 -0.375,0.21875 -0.60938,0.57813 -0.23437,0.35937 -0.34375,0.8125 -0.0937,0.45312 -0.0937,0.90625 v 0.26562 q 0,0.46875 0.0937,0.92188 0.10938,0.45312 0.34375,0.8125 0.23438,0.35937 0.60938,0.59375 0.375,0.21875 0.9375,0.21875 z m 7.85754,-7.90625 v 1.70312 h 2.6875 v 0.9375 h -2.6875 v 3.82813 q 0,0.40625 0.0937,0.67187 0.10938,0.26563 0.29688,0.4375 0.1875,0.15625 0.42187,0.21875 0.23438,0.0625 0.5,0.0625 0.20313,0 0.40625,-0.0156 0.20313,-0.0312 0.40625,-0.0625 0.20313,-0.0312 0.375,-0.0625 0.17188,-0.0469 0.28125,-0.0625 l 0.17188,0.84375 q -0.15625,0.0937 -0.375,0.17187 -0.20313,0.0625 -0.46875,0.10938 -0.25,0.0469 -0.53125,0.0625 -0.28125,0.0312 -0.5625,0.0312 -0.46875,0 -0.875,-0.125 -0.40625,-0.14063 -0.70313,-0.42188 -0.29687,-0.29687 -0.48437,-0.75 -0.17188,-0.46875 -0.17188,-1.10937 v -3.82813 h -1.84375 v -0.9375 h 1.84375 v -1.70312 z"
       id="path3934"
       inkscape:connector-curvature="0"
       style="fill:#000000;fill-rule:nonzero" />
    <path
       d="m 260.22833,206.85826 -2.04724,-39.1181"
       id="path3936"
       inkscape:connector-curvature="0"
       style="fill:#000000;fill-opacity:0;fill-rule:evenodd" />
    <path
       d="m 260.04922,203.43585 -1.86813,-35.69569"
       id="path3938"
       inkscape:connector-curvature="0"
       style="fill-rule:evenodd;stroke:#980000;stroke-width:1;stroke-linecap:butt;stroke-linejoin:round" />
    <path
       d="m 260.04922,203.43587 -1.18182,-1.06427 1.28454,3.02676 0.96155,-3.14431 z"
       id="path3940"
       inkscape:connector-curvature="0"
       style="fill:#980000;fill-rule:evenodd;stroke:#980000;stroke-width:1;stroke-linecap:butt" />
    <path
       d="m 300.38583,207.3937 24.6929,-39.65355"
       id="path3942"
       inkscape:connector-curvature="0"
       style="fill:#000000;fill-opacity:0;fill-rule:evenodd" />
    <path
       d="m 302.19742,204.48456 22.88132,-36.7444"
       id="path3944"
       inkscape:connector-curvature="0"
       style="fill-rule:evenodd;stroke:#980000;stroke-width:1;stroke-linecap:butt;stroke-linejoin:round" />
    <path
       d="m 302.1974,204.48456 -0.36014,-1.54909 -0.67865,3.21727 2.58789,-2.02835 z"
       id="path3946"
       inkscape:connector-curvature="0"
       style="fill:#980000;fill-rule:evenodd;stroke:#980000;stroke-width:1;stroke-linecap:butt" />
    <path
       d="m 383.97638,207.26509 8,-39.52756"
       id="path3948"
       inkscape:connector-curvature="0"
       style="fill:#000000;fill-opacity:0;fill-rule:evenodd" />
    <path
       d="m 384.65622,203.90611 7.32016,-36.16858"
       id="path3950"
       inkscape:connector-curvature="0"
       style="fill-rule:evenodd;stroke:#980000;stroke-width:1;stroke-linecap:butt;stroke-linejoin:round" />
    <path
       d="m 384.6562,203.90611 -0.87915,-1.32532 0.48935,3.25145 1.71512,-2.80528 z"
       id="path3952"
       inkscape:connector-curvature="0"
       style="fill:#980000;fill-rule:evenodd;stroke:#980000;stroke-width:1;stroke-linecap:butt" />
    <path
       d="m 279.08136,248.27296 36.72443,37.32283"
       id="path3954"
       inkscape:connector-curvature="0"
       style="fill:#000000;fill-opacity:0;fill-rule:evenodd" />
    <path
       d="m 279.08136,248.27296 34.32077,34.88002"
       id="path3956"
       inkscape:connector-curvature="0"
       style="fill-rule:evenodd;stroke:#980000;stroke-width:1;stroke-linecap:butt;stroke-linejoin:round" />
    <path
       d="m 313.40213,283.15298 -1.59036,-0.0129 2.96866,1.41364 -1.36545,-2.99115 z"
       id="path3958"
       inkscape:connector-curvature="0"
       style="fill:#980000;fill-rule:evenodd;stroke:#980000;stroke-width:1;stroke-linecap:butt" />
    <path
       d="m 352.35434,285.09186 31.62204,-36.81889"
       id="path3960"
       inkscape:connector-curvature="0"
       style="fill:#000000;fill-opacity:0;fill-rule:evenodd" />
    <path
       d="m 354.58722,282.49203 29.38916,-34.21907"
       id="path3962"
       inkscape:connector-curvature="0"
       style="fill-rule:evenodd;stroke:#980000;stroke-width:1;stroke-linecap:butt;stroke-linejoin:round" />
    <path
       d="m 354.58722,282.49203 -0.12042,-1.58585 -1.15998,3.07666 2.86622,-1.61123 z"
       id="path3964"
       inkscape:connector-curvature="0"
       style="fill:#980000;fill-rule:evenodd;stroke:#980000;stroke-width:1;stroke-linecap:butt" />
    <path
       d="m 333.80316,326.3176 v 37.03937"
       id="path3966"
       inkscape:connector-curvature="0"
       style="fill:#000000;fill-opacity:0;fill-rule:evenodd" />
    <path
       d="m 333.80316,326.3176 v 33.61227"
       id="path3968"
       inkscape:connector-curvature="0"
       style="fill-rule:evenodd;stroke:#980000;stroke-width:1;stroke-linecap:butt;stroke-linejoin:round" />
    <path
       d="m 333.80316,359.92987 -1.1246,-1.12457 1.1246,3.08975 1.12457,-3.08975 z"
       id="path3970"
       inkscape:connector-curvature="0"
       style="fill:#980000;fill-rule:evenodd;stroke:#980000;stroke-width:1;stroke-linecap:butt" />
    <path
       d="M 496.22968,199.00787 V 321.02362 H 429.01709 V 199.00787 Z"
       id="path3972"
       inkscape:connector-curvature="0"
       style="fill:#000000;fill-opacity:0;fill-rule:evenodd" />
    <path
       d="m 474.15344,224.84953 q 2.6875,0 3.96875,1.48437 1.07812,1.25 1.07812,3.04688 0,2 -1.3125,3.26562 -1.29687,1.26563 -3.60937,1.26563 -1.85938,0 -2.9375,-0.5625 -1.0625,-0.5625 -1.65625,-1.64063 -0.59375,-1.0625 -0.59375,-2.32812 0,-2.03125 1.29687,-3.28125 1.3125,-1.25 3.76563,-1.25 z m 0,1.6875 q -1.85938,0 -2.79688,0.79687 -0.92187,0.8125 -0.92187,2.04688 0,1.21875 0.92187,2.03125 0.9375,0.8125 2.84375,0.8125 1.79688,0 2.71875,-0.8125 0.92188,-0.8125 0.92188,-2.03125 0,-1.23438 -0.92188,-2.04688 -0.90625,-0.79687 -2.76562,-0.79687 z m -4.84375,15.62572 h 1.42187 q -1.64062,-1.125 -1.64062,-3.0625 0,-0.85938 0.32812,-1.60938 0.32813,-0.73437 0.82813,-1.09375 0.5,-0.35937 1.21875,-0.5 0.46875,-0.10937 1.53125,-0.10937 h 5.98437 v 1.64062 h -5.35937 q -1.28125,0 -1.73438,0.10938 -0.64062,0.15625 -1.01562,0.65625 -0.375,0.5 -0.375,1.23437 0,0.73438 0.375,1.375 0.39062,0.65625 1.03125,0.92188 0.65625,0.26562 1.89062,0.26562 h 5.1875 v 1.64063 h -9.67187 z m 1.46875,7.62571 -1.45313,0.23438 q -0.14062,-0.6875 -0.14062,-1.23438 0,-0.89062 0.28125,-1.39062 0.28125,-0.48438 0.73437,-0.6875 0.46875,-0.20313 1.9375,-0.20313 h 5.57813 v -1.20312 h 1.26562 v 1.20312 h 2.39063 l 0.98437,1.625 h -3.375 v 1.65625 h -1.26562 v -1.65625 h -5.67188 q -0.6875,0 -0.89062,0.0781 -0.20313,0.0937 -0.32813,0.28125 -0.10937,0.20312 -0.10937,0.57812 0,0.26563 0.0625,0.71875 z m -2.26563,1.29268 -0.23437,1.59375 q -0.75,0.10938 -1.07813,0.5625 -0.45312,0.60938 -0.45312,1.67188 0,1.14062 0.45312,1.75 0.45313,0.625 1.26563,0.84375 0.5,0.125 2.10937,0.10937 -1.26562,-1.0625 -1.26562,-2.67187 0,-2 1.4375,-3.09375 1.4375,-1.09375 3.45312,-1.09375 1.39063,0 2.5625,0.5 1.17188,0.51562 1.79688,1.45312 0.64062,0.95313 0.64062,2.25 0,1.70313 -1.375,2.8125 h 1.15625 v 1.51563 h -8.35937 q -2.26563,0 -3.20313,-0.46875 -0.9375,-0.45313 -1.48437,-1.45313 -0.54688,-0.98437 -0.54688,-2.45312 0,-1.71875 0.78125,-2.79688 0.76563,-1.0625 2.34375,-1.03125 z m 5.8125,1.35938 q -1.90625,0 -2.78125,0.75 -0.875,0.76562 -0.875,1.90625 0,1.125 0.85938,1.89062 0.875,0.76563 2.73437,0.76563 1.78125,0 2.67188,-0.79688 0.90625,-0.78125 0.90625,-1.89062 0,-1.09375 -0.89063,-1.85938 -0.875,-0.76562 -2.625,-0.76562 z m -0.17187,8.71948 q 2.6875,0 3.96875,1.48437 1.07812,1.25 1.07812,3.04688 0,2 -1.3125,3.26562 -1.29687,1.26563 -3.60937,1.26563 -1.85938,0 -2.9375,-0.5625 -1.0625,-0.5625 -1.65625,-1.64063 -0.59375,-1.0625 -0.59375,-2.32812 0,-2.03125 1.29687,-3.28125 1.3125,-1.25 3.76563,-1.25 z m 0,1.6875 q -1.85938,0 -2.79688,0.79687 -0.92187,0.8125 -0.92187,2.04688 0,1.21875 0.92187,2.03125 0.9375,0.8125 2.84375,0.8125 1.79688,0 2.71875,-0.8125 0.92188,-0.8125 0.92188,-2.03125 0,-1.23438 -0.92188,-2.04688 -0.90625,-0.79687 -2.76562,-0.79687 z m 6.625,9.29758 h 1.89062 v 1.64062 h -1.89062 z m -11.46875,0 h 9.67187 v 1.64062 h -9.67187 z m 0,4.14483 h 9.67187 v 1.46875 h -1.375 q 1.59375,1.0625 1.59375,3.07813 0,0.875 -0.3125,1.60937 -0.3125,0.73438 -0.82812,1.09375 -0.5,0.375 -1.20313,0.51563 -0.45312,0.0937 -1.59375,0.0937 h -5.95312 v -1.64063 h 5.89062 q 1,0 1.48438,-0.20312 0.5,-0.1875 0.79687,-0.67188 0.29688,-0.48437 0.29688,-1.14062 0,-1.04688 -0.67188,-1.8125 -0.65625,-0.75 -2.51562,-0.75 h -5.28125 z m -0.79688,10.06321 -0.23437,1.59375 q -0.75,0.10937 -1.07813,0.5625 -0.45312,0.60937 -0.45312,1.67187 0,1.14063 0.45312,1.75 0.45313,0.625 1.26563,0.84375 0.5,0.125 2.10937,0.10938 -1.26562,-1.0625 -1.26562,-2.67188 0,-2 1.4375,-3.09375 1.4375,-1.09375 3.45312,-1.09375 1.39063,0 2.5625,0.5 1.17188,0.51563 1.79688,1.45313 0.64062,0.95312 0.64062,2.25 0,1.70312 -1.375,2.8125 h 1.15625 v 1.51562 h -8.35937 q -2.26563,0 -3.20313,-0.46875 -0.9375,-0.45312 -1.48437,-1.45312 -0.54688,-0.98438 -0.54688,-2.45313 0,-1.71875 0.78125,-2.79687 0.76563,-1.0625 2.34375,-1.03125 z m 5.8125,1.35937 q -1.90625,0 -2.78125,0.75 -0.875,0.76563 -0.875,1.90625 0,1.125 0.85938,1.89063 0.875,0.76562 2.73437,0.76562 1.78125,0 2.67188,-0.79687 0.90625,-0.78125 0.90625,-1.89063 0,-1.09375 -0.89063,-1.85937 -0.875,-0.76563 -2.625,-0.76563 z"
       id="path3974"
       inkscape:connector-curvature="0"
       style="fill:#000000;fill-rule:nonzero" />
    <path
       d="m 447.3097,210.74225 v -1.51562 h 13.35938 v 1.64062 h -4.76563 q 1.29688,1.04688 1.29688,2.65625 0,0.89063 -0.35938,1.6875 -0.35937,0.79688 -1.01562,1.3125 -0.64063,0.51563 -1.5625,0.79688 -0.92188,0.29687 -1.96875,0.29687 -2.48438,0 -3.84375,-1.23437 -1.35938,-1.21875 -1.35938,-2.95313 0,-1.70312 1.4375,-2.6875 z m 4.90625,-0.0156 q -1.73437,0 -2.51562,0.48437 -1.26563,0.76563 -1.26563,2.09375 0,1.07813 0.9375,1.85938 0.9375,0.78125 2.78125,0.78125 1.89063,0 2.79688,-0.75 0.90625,-0.75 0.90625,-1.82813 0,-1.0625 -0.9375,-1.85937 -0.9375,-0.78125 -2.70313,-0.78125 z m 6.5625,8.89134 h 1.89063 v 1.64062 h -1.89063 z m -11.46875,0 h 9.67188 v 1.64062 h -9.67188 z m 0,4.14482 h 9.67188 v 1.46875 h -1.375 q 1.59375,1.0625 1.59375,3.07812 0,0.875 -0.3125,1.60938 -0.3125,0.73437 -0.82813,1.09375 -0.5,0.375 -1.20312,0.51562 -0.45313,0.0937 -1.59375,0.0937 h -5.95313 v -1.64062 h 5.89063 q 1,0 1.48437,-0.20313 0.5,-0.1875 0.79688,-0.67187 0.29687,-0.48438 0.29687,-1.14063 0,-1.04687 -0.67187,-1.8125 -0.65625,-0.75 -2.51563,-0.75 h -5.28125 z m 0,16.64134 h 1.21875 q -1.4375,-0.90625 -1.4375,-2.70312 0,-1.15625 0.64063,-2.125 0.64062,-0.96875 1.78125,-1.5 1.14062,-0.53125 2.625,-0.53125 1.45312,0 2.625,0.48437 1.1875,0.48438 1.8125,1.4375 0.625,0.96875 0.625,2.17188 0,0.875 -0.375,1.54687 -0.35938,0.6875 -0.95313,1.10938 h 4.79688 v 1.64062 H 447.3097 Z m 4.82813,-5.17187 q -1.85938,0 -2.78125,0.78125 -0.92188,0.78125 -0.92188,1.84375 0,1.07812 0.875,1.82812 0.89063,0.75 2.6875,0.75 1.98438,0 2.90625,-0.76562 0.9375,-0.76563 0.9375,-1.89063 0,-1.07812 -0.89062,-1.8125 -0.89063,-0.73437 -2.8125,-0.73437 z m 6.64062,9.28196 h 1.89063 v 1.64063 h -1.89063 z m -11.46875,0 h 9.67188 v 1.64063 h -9.67188 z m 0,4.14482 h 9.67188 v 1.46875 h -1.375 q 1.59375,1.0625 1.59375,3.07813 0,0.875 -0.3125,1.60937 -0.3125,0.73438 -0.82813,1.09375 -0.5,0.37502 -1.20312,0.51564 -0.45313,0.0937 -1.59375,0.0937 h -5.95313 v -1.64064 h 5.89063 q 1,0 1.48437,-0.20312 0.5,-0.1875 0.79688,-0.67188 0.29687,-0.48437 0.29687,-1.14062 0,-1.04688 -0.67187,-1.8125 -0.65625,-0.75 -2.51563,-0.75 h -5.28125 z m -0.79687,10.06322 -0.23438,1.59375 q -0.75,0.10938 -1.07812,0.5625 -0.45313,0.60938 -0.45313,1.67188 0,1.14062 0.45313,1.75 0.45312,0.625 1.26562,0.84375 0.5,0.125 2.10938,0.10937 -1.26563,-1.0625 -1.26563,-2.67187 0,-2 1.4375,-3.09375 1.4375,-1.09375 3.45313,-1.09375 1.39062,0 2.5625,0.5 1.17187,0.51562 1.79687,1.45312 0.64063,0.95313 0.64063,2.25 0,1.70313 -1.375,2.8125 h 1.15625 v 1.51563 h -8.35938 q -2.26562,0 -3.20312,-0.46875 -0.9375,-0.45313 -1.48438,-1.45313 -0.54687,-0.98437 -0.54687,-2.45312 0,-1.71875 0.78125,-2.79688 0.76562,-1.0625 2.34375,-1.03125 z m 5.8125,1.35938 q -1.90625,0 -2.78125,0.75 -0.875,0.76562 -0.875,1.90625 0,1.125 0.85937,1.89062 0.875,0.76563 2.73438,0.76563 1.78125,0 2.67187,-0.79688 0.90625,-0.78125 0.90625,-1.89062 0,-1.09375 -0.89062,-1.85938 -0.875,-0.76562 -2.625,-0.76562 z m -1.90625,21.13714 -0.20313,1.6875 q -1.48437,-0.40625 -2.3125,-1.48437 -0.8125,-1.07813 -0.8125,-2.76563 0,-2.125 1.29688,-3.375 1.3125,-1.23437 3.67187,-1.23437 2.45313,0 3.79688,1.25 1.34375,1.26562 1.34375,3.26562 0,1.9375 -1.32813,3.15625 -1.3125,1.23438 -3.70312,1.23438 -0.15625,0 -0.4375,0 v -7.21875 q -1.59375,0.0937 -2.45313,0.90625 -0.84375,0.8125 -0.84375,2.01562 0,0.90625 0.46875,1.54688 0.48438,0.64062 1.51563,1.01562 z m 2.65625,-5.39062 v 5.40625 q 1.21875,-0.10938 1.82812,-0.625 0.95313,-0.78125 0.95313,-2.03125 0,-1.125 -0.76563,-1.90625 -0.75,-0.76563 -2.01562,-0.84375 z m -5.76563,8.0476 5.03125,3.53125 4.64063,-3.26562 v 2.04687 l -2.26563,1.48438 q -0.64062,0.42187 -1.07812,0.67187 0.59375,0.40625 1.0625,0.73438 l 2.28125,1.64062 v 1.95313 l -4.54688,-3.34375 -5.125,3.59375 v -2.01563 l 3,-1.98437 0.8125,-0.51563 -3.8125,-2.54687 z m -3.70312,10.42188 h 13.375 v 1.48437 h -1.25 q 0.73437,0.53125 1.09375,1.1875 0.375,0.67188 0.375,1.625 0,1.23438 -0.64063,2.17188 -0.625,0.95312 -1.79687,1.4375 -1.15625,0.48437 -2.54688,0.48437 -1.48437,0 -2.67187,-0.53125 -1.1875,-0.53125 -1.82813,-1.54687 -0.625,-1.01563 -0.625,-2.14063 0,-0.8125 0.34375,-1.46875 0.34375,-0.65625 0.875,-1.0625 h -4.70312 z m 8.48437,1.48437 q -1.85937,0 -2.76562,0.75 -0.89063,0.76563 -0.89063,1.82813 0,1.09375 0.92188,1.875 0.9375,0.78125 2.875,0.78125 1.84375,0 2.76562,-0.76563 0.92188,-0.75 0.92188,-1.8125 0,-1.04687 -0.98438,-1.85937 -0.96875,-0.79688 -2.84375,-0.79688 z m -4.78125,8.8757 h 9.67188 v 1.46875 h -1.46875 q 1.03125,0.5625 1.35937,1.03125 0.32813,0.48438 0.32813,1.0625 0,0.82813 -0.53125,1.6875 l -1.51563,-0.5625 q 0.35938,-0.60937 0.35938,-1.20312 0,-0.54688 -0.32813,-0.96875 -0.32812,-0.42188 -0.89062,-0.60938 -0.875,-0.28125 -1.92188,-0.28125 h -5.0625 z"
       id="path3976"
       inkscape:connector-curvature="0"
       style="fill:#000000;fill-rule:nonzero" />
    <path
       d="m 439.44095,109.27239 h 100.34647 v 69.16535 H 439.44095 Z"
       id="path3978"
       inkscape:connector-curvature="0"
       style="fill:#000000;fill-opacity:0;fill-rule:evenodd" />
    <path
       d="m 456.48782,133.47363 q 0,1.39063 -1.04688,2.15625 -1.03125,0.75 -2.90625,0.75 -1.98437,0 -3.09375,-0.64062 v -1.39063 q 0.71875,0.35938 1.53125,0.57813 0.82813,0.20312 1.59375,0.20312 1.1875,0 1.82813,-0.375 0.64062,-0.39062 0.64062,-1.15625 0,-0.57812 -0.51562,-1 -0.5,-0.42187 -1.96875,-0.98437 -1.39063,-0.51563 -1.98438,-0.89063 -0.57812,-0.39062 -0.875,-0.875 -0.28125,-0.5 -0.28125,-1.1875 0,-1.21874 0.98438,-1.92187 1,-0.71875 2.73437,-0.71875 1.60938,0 3.14063,0.65625 l -0.53125,1.23438 q -1.5,-0.625 -2.71875,-0.625 -1.07813,0 -1.625,0.34375 -0.54688,0.34375 -0.54688,0.92187 0,0.40625 0.20313,0.6875 0.20312,0.28125 0.65625,0.54687 0.45312,0.25 1.75,0.73438 1.78125,0.64062 2.40625,1.29687 0.625,0.65625 0.625,1.65625 z m 11.07184,-2.28125 q 0,2.4375 -1.23438,3.8125 -1.21875,1.375 -3.39062,1.375 -1.34375,0 -2.39063,-0.625 -1.03125,-0.64062 -1.59375,-1.8125 -0.5625,-1.17187 -0.5625,-2.75 0,-2.4375 1.21875,-3.79687 1.21875,-1.375 3.39063,-1.375 2.09375,0 3.32812,1.40625 1.23438,1.39062 1.23438,3.76562 z m -7.60938,0 q 0,1.90625 0.76563,2.92188 0.76562,1 2.25,1 1.48437,0 2.25,-1 0.78125,-1 0.78125,-2.92188 0,-1.90625 -0.78125,-2.89062 -0.76563,-0.98437 -2.26563,-0.98437 -1.48437,0 -2.25,0.96874 -0.75,0.96875 -0.75,2.90625 z m 11.69034,-4.98437 v 6.48437 q 0,1.21875 0.54688,1.82813 0.5625,0.59375 1.73437,0.59375 1.57813,0 2.29688,-0.85938 0.71875,-0.85937 0.71875,-2.79687 v -5.25 h 1.51562 v 9.98437 h -1.25 l -0.21875,-1.34375 h -0.0781 q -0.46875,0.75 -1.29688,1.14062 -0.8125,0.39063 -1.875,0.39063 -1.8125,0 -2.71875,-0.85938 -0.90625,-0.875 -0.90625,-2.78125 v -6.53124 z m 14.57562,-0.1875 q 0.67188,0 1.1875,0.10938 l -0.20312,1.40625 q -0.625,-0.14063 -1.09375,-0.14063 -1.20313,0 -2.07813,0.98437 -0.85937,0.98438 -0.85937,2.45313 v 5.35937 h -1.5 v -9.98437 h 1.23437 l 0.1875,1.84375 h 0.0625 q 0.5625,-0.96875 1.34375,-1.5 0.78125,-0.53125 1.71875,-0.53125 z m 7.05304,10.35937 q -2.17187,0 -3.35937,-1.32813 -1.1875,-1.34375 -1.1875,-3.78125 0,-2.51562 1.20312,-3.87499 1.21875,-1.375 3.4375,-1.375 0.71875,0 1.4375,0.15625 0.73438,0.15625 1.14063,0.375 l -0.46875,1.28125 q -0.5,-0.20312 -1.09375,-0.32812 -0.59375,-0.14063 -1.04688,-0.14063 -3.04687,0 -3.04687,3.87499 0,1.84375 0.73437,2.82813 0.75,0.98437 2.21875,0.98437 1.25,0 2.54688,-0.53125 v 1.32813 q -1,0.53125 -2.51563,0.53125 z m 9.11615,0 q -2.21875,0 -3.5,-1.34375 -1.28125,-1.35938 -1.28125,-3.75 0,-2.42188 1.1875,-3.84374 1.1875,-1.42188 3.1875,-1.42188 1.89063,0 2.96875,1.23438 1.09375,1.23436 1.09375,3.26561 v 0.95313 h -6.875 q 0.0469,1.76562 0.89063,2.67187 0.84375,0.90625 2.375,0.90625 1.60937,0 3.1875,-0.67187 v 1.34375 q -0.79688,0.34375 -1.51563,0.5 -0.71875,0.15625 -1.71875,0.15625 z m -0.42187,-9.09374 q -1.20313,0 -1.92188,0.79687 -0.70312,0.78125 -0.82812,2.15625 h 5.21875 q 0,-1.42188 -0.64063,-2.1875 -0.64062,-0.76562 -1.82812,-0.76562 z"
       id="path3980"
       inkscape:connector-curvature="0"
       style="fill:#000000;fill-rule:nonzero" />
    <path
       d="m 453.26907,157.12988 q 0.40625,0 0.76562,-0.0625 0.375,-0.0625 0.59375,-0.125 v 1.15625 q -0.23437,0.125 -0.71875,0.20313 -0.48437,0.0781 -0.85937,0.0781 -2.89063,0 -2.89063,-3.0625 v -5.9375 h -1.4375 v -0.71875 l 1.4375,-0.64062 0.625,-2.125 h 0.875 v 2.3125 h 2.90625 v 1.17187 h -2.90625 v 5.875 q 0,0.90625 0.42188,1.39063 0.4375,0.48437 1.1875,0.48437 z m 4.78928,-8.92187 v 6.48437 q 0,1.21875 0.54687,1.82813 0.5625,0.59375 1.73438,0.59375 1.57812,0 2.29687,-0.85938 0.71875,-0.85937 0.71875,-2.79687 v -5.25 h 1.51563 v 9.98437 h -1.25 l -0.21875,-1.34375 h -0.0781 q -0.46875,0.75 -1.29687,1.14063 -0.8125,0.39062 -1.875,0.39062 -1.8125,0 -2.71875,-0.85937 -0.90625,-0.875 -0.90625,-2.78125 v -6.53125 z m 14.6694,10.17187 q -0.96875,0 -1.78125,-0.35937 -0.8125,-0.35938 -1.35938,-1.10938 h -0.10937 q 0.10937,0.875 0.10937,1.65625 v 4.10938 h -1.5 v -14.46875 h 1.21875 l 0.21875,1.35937 h 0.0625 q 0.59375,-0.8125 1.35938,-1.17187 0.78125,-0.375 1.78125,-0.375 1.98437,0 3.0625,1.35937 1.07812,1.35938 1.07812,3.8125 0,2.45313 -1.09375,3.82813 -1.09375,1.35937 -3.04687,1.35937 z m -0.21875,-9.0625 q -1.53125,0 -2.21875,0.84375 -0.67188,0.84375 -0.70313,2.6875 v 0.34375 q 0,2.10938 0.70313,3.01563 0.70312,0.90625 2.25,0.90625 1.29687,0 2.03125,-1.04688 0.73437,-1.04687 0.73437,-2.89062 0,-1.875 -0.73437,-2.85938 -0.73438,-1 -2.0625,-1 z m 8.51053,8.875 h -1.5 v -14.17187 h 1.5 z m 7.43747,0.1875 q -2.21875,0 -3.5,-1.34375 -1.28125,-1.35937 -1.28125,-3.75 0,-2.42187 1.1875,-3.84375 1.1875,-1.42187 3.1875,-1.42187 1.89062,0 2.96875,1.23437 1.09375,1.23438 1.09375,3.26563 v 0.95312 h -6.875 q 0.0469,1.76563 0.89062,2.67188 0.84375,0.90625 2.375,0.90625 1.60938,0 3.1875,-0.67188 v 1.34375 q -0.79687,0.34375 -1.51562,0.5 -0.71875,0.15625 -1.71875,0.15625 z m -0.42188,-9.09375 q -1.20312,0 -1.92187,0.79688 -0.70313,0.78125 -0.82813,2.15625 h 5.21875 q 0,-1.42188 -0.64062,-2.1875 -0.64063,-0.76563 -1.82813,-0.76563 z"
       id="path3982"
       inkscape:connector-curvature="0"
       style="fill:#000000;fill-rule:nonzero" />
    <path
       d="m 414.64505,355.21408 h 120.03153 v 69.16534 H 414.64505 Z"
       id="path3984"
       inkscape:connector-curvature="0"
       style="fill:#000000;fill-opacity:0;fill-rule:evenodd" />
    <path
       d="m 432.0513,380.7903 h -0.0937 q -1.04687,1.53125 -3.125,1.53125 -1.96875,0 -3.0625,-1.34375 -1.07812,-1.34375 -1.07812,-3.8125 0,-2.46875 1.09375,-3.82813 1.09375,-1.375 3.04687,-1.375 2.03125,0 3.10938,1.48438 h 0.125 l -0.0625,-0.71875 -0.0469,-0.70313 v -4.0625 h 1.51563 v 14.17188 h -1.23438 z m -3.03125,0.26562 q 1.54688,0 2.23438,-0.84375 0.70312,-0.84375 0.70312,-2.71875 v -0.32812 q 0,-2.125 -0.70312,-3.03125 -0.70313,-0.90625 -2.25,-0.90625 -1.32813,0 -2.04688,1.04687 -0.70312,1.03125 -0.70312,2.90625 0,1.92188 0.70312,2.90625 0.70313,0.96875 2.0625,0.96875 z m 11.88556,1.26563 q -2.21875,0 -3.5,-1.34375 -1.28125,-1.35938 -1.28125,-3.75 0,-2.42188 1.1875,-3.84375 1.1875,-1.42188 3.1875,-1.42188 1.89062,0 2.96875,1.23438 1.09375,1.23437 1.09375,3.26562 v 0.95313 h -6.875 q 0.0469,1.76562 0.89062,2.67187 0.84375,0.90625 2.375,0.90625 1.60938,0 3.1875,-0.67187 v 1.34375 q -0.79687,0.34375 -1.51562,0.5 -0.71875,0.15625 -1.71875,0.15625 z m -0.42188,-9.09375 q -1.20312,0 -1.92187,0.79687 -0.70313,0.78125 -0.82813,2.15625 h 5.21875 q 0,-1.42187 -0.64062,-2.1875 -0.64063,-0.76562 -1.82813,-0.76562 z m 13.10743,6.1875 q 0,1.39062 -1.04688,2.15625 -1.03125,0.75 -2.90625,0.75 -1.98437,0 -3.09375,-0.64063 v -1.39062 q 0.71875,0.35937 1.53125,0.57812 0.82813,0.20313 1.59375,0.20313 1.1875,0 1.82813,-0.375 0.64062,-0.39063 0.64062,-1.15625 0,-0.57813 -0.51562,-1 -0.5,-0.42188 -1.96875,-0.98438 -1.39063,-0.51562 -1.98438,-0.89062 -0.57812,-0.39063 -0.875,-0.875 -0.28125,-0.5 -0.28125,-1.1875 0,-1.21875 0.98438,-1.92188 1,-0.71875 2.73437,-0.71875 1.60938,0 3.14063,0.65625 l -0.53125,1.23438 q -1.5,-0.625 -2.71875,-0.625 -1.07813,0 -1.625,0.34375 -0.54688,0.34375 -0.54688,0.92187 0,0.40625 0.20313,0.6875 0.20312,0.28125 0.65625,0.54688 0.45312,0.25 1.75,0.73437 1.78125,0.64063 2.40625,1.29688 0.625,0.65625 0.625,1.65625 z m 5.68124,1.65625 q 0.40625,0 0.76562,-0.0625 0.375,-0.0625 0.59375,-0.125 v 1.15625 q -0.23437,0.125 -0.71875,0.20312 -0.48437,0.0781 -0.85937,0.0781 -2.89063,0 -2.89063,-3.0625 v -5.9375 h -1.4375 v -0.71875 l 1.4375,-0.64063 0.625,-2.125 h 0.875 v 2.3125 h 2.90625 v 1.17188 h -2.90625 v 5.875 q 0,0.90625 0.42188,1.39062 0.4375,0.48438 1.1875,0.48438 z m 4.8674,1.0625 h -1.5 v -9.98438 h 1.5 z m -1.64062,-12.6875 q 0,-0.51563 0.25,-0.75 0.26562,-0.25 0.65625,-0.25 0.35937,0 0.625,0.25 0.26562,0.23437 0.26562,0.75 0,0.51562 -0.26562,0.76562 -0.26563,0.25 -0.625,0.25 -0.39063,0 -0.65625,-0.25 -0.25,-0.25 -0.25,-0.76562 z m 11.68747,12.6875 v -6.45313 q 0,-1.21875 -0.5625,-1.8125 -0.54688,-0.60937 -1.73438,-0.60937 -1.5625,0 -2.29687,0.84375 -0.73438,0.84375 -0.73438,2.79687 v 5.23438 h -1.5 v -9.98438 h 1.21875 l 0.25,1.35938 h 0.0781 q 0.45312,-0.73438 1.29687,-1.14063 0.84375,-0.40625 1.875,-0.40625 1.79688,0 2.70313,0.875 0.92187,0.875 0.92187,2.78125 v 6.51563 z m 10.76315,0 -0.3125,-1.42188 h -0.0625 q -0.75,0.9375 -1.5,1.28125 -0.73438,0.32813 -1.84375,0.32813 -1.48438,0 -2.32813,-0.76563 -0.84375,-0.76562 -0.84375,-2.1875 0,-3.01562 4.82813,-3.17187 l 1.70312,-0.0469 v -0.625 q 0,-1.17187 -0.51562,-1.73437 -0.5,-0.5625 -1.60938,-0.5625 -1.25,0 -2.82812,0.76562 l -0.45313,-1.15625 q 0.73438,-0.39062 1.60938,-0.60937 0.875,-0.23438 1.76562,-0.23438 1.78125,0 2.64063,0.79688 0.85937,0.78125 0.85937,2.53125 v 6.8125 z m -3.42188,-1.0625 q 1.40625,0 2.20313,-0.76563 0.8125,-0.78125 0.8125,-2.1875 v -0.89062 l -1.5,0.0625 q -1.8125,0.0625 -2.60938,0.5625 -0.79687,0.48437 -0.79687,1.54687 0,0.8125 0.5,1.25 0.5,0.42188 1.39062,0.42188 z m 10.87571,0 q 0.40625,0 0.76562,-0.0625 0.375,-0.0625 0.59375,-0.125 v 1.15625 q -0.23437,0.125 -0.71875,0.20312 -0.48437,0.0781 -0.85937,0.0781 -2.89063,0 -2.89063,-3.0625 v -5.9375 h -1.4375 v -0.71875 l 1.4375,-0.64063 0.625,-2.125 h 0.875 v 2.3125 h 2.90625 v 1.17188 h -2.90625 v 5.875 q 0,0.90625 0.42188,1.39062 0.4375,0.48438 1.1875,0.48438 z m 4.86743,1.0625 h -1.5 v -9.98438 h 1.5 z m -1.64063,-12.6875 q 0,-0.51563 0.25,-0.75 0.26563,-0.25 0.65625,-0.25 0.35938,0 0.625,0.25 0.26563,0.23437 0.26563,0.75 0,0.51562 -0.26563,0.76562 -0.26562,0.25 -0.625,0.25 -0.39062,0 -0.65625,-0.25 -0.25,-0.25 -0.25,-0.76562 z m 13.46872,7.6875 q 0,2.4375 -1.23437,3.8125 -1.21875,1.375 -3.39063,1.375 -1.34375,0 -2.39062,-0.625 -1.03125,-0.64063 -1.59375,-1.8125 -0.5625,-1.17188 -0.5625,-2.75 0,-2.4375 1.21875,-3.79688 1.21875,-1.375 3.39062,-1.375 2.09375,0 3.32813,1.40625 1.23437,1.39063 1.23437,3.76563 z m -7.60937,0 q 0,1.90625 0.76562,2.92187 0.76563,1 2.25,1 1.48438,0 2.25,-1 0.78125,-1 0.78125,-2.92187 0,-1.90625 -0.78125,-2.89063 -0.76562,-0.98437 -2.26562,-0.98437 -1.48438,0 -2.25,0.96875 -0.75,0.96875 -0.75,2.90625 z m 17.09658,5 v -6.45313 q 0,-1.21875 -0.5625,-1.8125 -0.54687,-0.60937 -1.73437,-0.60937 -1.5625,0 -2.29688,0.84375 -0.73437,0.84375 -0.73437,2.79687 v 5.23438 h -1.50003 v -9.98438 h 1.21878 l 0.25,1.35938 h 0.0781 q 0.45313,-0.73438 1.29688,-1.14063 0.84375,-0.40625 1.875,-0.40625 1.79687,0 2.70312,0.875 0.92188,0.875 0.92188,2.78125 v 6.51563 z"
       id="path3986"
       inkscape:connector-curvature="0"
       style="fill:#000000;fill-rule:nonzero" />
    <path
       d="m 428.47318,403.07156 q 0.40625,0 0.76563,-0.0625 0.375,-0.0625 0.59375,-0.125 v 1.15625 q -0.23438,0.125 -0.71875,0.20312 -0.48438,0.0781 -0.85938,0.0781 -2.89062,0 -2.89062,-3.0625 v -5.9375 h -1.4375 v -0.71875 l 1.4375,-0.64063 0.625,-2.125 h 0.875 v 2.3125 h 2.90625 v 1.17188 h -2.90625 v 5.875 q 0,0.90625 0.42187,1.39062 0.4375,0.48438 1.1875,0.48438 z m 4.78931,-8.92188 v 6.48438 q 0,1.21875 0.54687,1.82812 0.5625,0.59375 1.73438,0.59375 1.57812,0 2.29687,-0.85937 0.71875,-0.85938 0.71875,-2.79688 v -5.25 h 1.51563 v 9.98438 h -1.25 l -0.21875,-1.34375 h -0.0781 q -0.46875,0.75 -1.29687,1.14062 -0.8125,0.39063 -1.875,0.39063 -1.8125,0 -2.71875,-0.85938 -0.90625,-0.875 -0.90625,-2.78125 v -6.53125 z m 14.66937,10.17188 q -0.96875,0 -1.78125,-0.35938 -0.8125,-0.35937 -1.35938,-1.10937 h -0.10937 q 0.10937,0.875 0.10937,1.65625 v 4.10937 h -1.5 v -14.46875 h 1.21875 l 0.21875,1.35938 h 0.0625 q 0.59375,-0.8125 1.35938,-1.17188 0.78125,-0.375 1.78125,-0.375 1.98437,0 3.0625,1.35938 1.07812,1.35937 1.07812,3.8125 0,2.45312 -1.09375,3.82812 -1.09375,1.35938 -3.04687,1.35938 z m -0.21875,-9.0625 q -1.53125,0 -2.21875,0.84375 -0.67188,0.84375 -0.70313,2.6875 v 0.34375 q 0,2.10937 0.70313,3.01562 0.70312,0.90625 2.25,0.90625 1.29687,0 2.03125,-1.04687 0.73437,-1.04688 0.73437,-2.89063 0,-1.875 -0.73437,-2.85937 -0.73438,-1 -2.0625,-1 z m 8.51056,8.875 h -1.5 v -14.17188 h 1.5 z m 7.43747,0.1875 q -2.21875,0 -3.5,-1.34375 -1.28125,-1.35938 -1.28125,-3.75 0,-2.42188 1.1875,-3.84375 1.1875,-1.42188 3.1875,-1.42188 1.89062,0 2.96875,1.23438 1.09375,1.23437 1.09375,3.26562 v 0.95313 h -6.875 q 0.0469,1.76562 0.89062,2.67187 0.84375,0.90625 2.375,0.90625 1.60938,0 3.1875,-0.67187 v 1.34375 q -0.79687,0.34375 -1.51562,0.5 -0.71875,0.15625 -1.71875,0.15625 z m -0.42188,-9.09375 q -1.20312,0 -1.92187,0.79687 -0.70313,0.78125 -0.82813,2.15625 h 5.21875 q 0,-1.42187 -0.64062,-2.1875 -0.64063,-0.76562 -1.82813,-0.76562 z"
       id="path3988"
       inkscape:connector-curvature="0"
       style="fill:#000000;fill-rule:nonzero" />
  </g>
</svg>
